# xmcd
#
# Track frame offsets: 
#        150
#        13410
#        26483
#        38945
#        50900
#        62743
#        72710
#        83660
#        96070
#
# Disc length: 1443 seconds
#
# Revision: 2
# Processed by: cddbd v1.5.2PL0 Copyright (c) Steve Scherf et al.
# Submitted via: ExactAudioCopy v0.95b4
#
DISCID=7d05a109
DTITLE=Hank Williams - The Hits Volume One
DYEAR=1994
DGENRE=Country
TTITLE0=Hey, Good Lookin'
TTITLE1=Jambalaya (On The Bayou)
TTITLE2=Move It On Over
TTITLE3=Long Gone Lonesome Blues
TTITLE4=Settin' The Woods On Fire
TTITLE5=Honky Tonk Blues
TTITLE6=Why Don't You Love Me 
TTITLE7=I Say The Light
TTITLE8=Lovesick Blues
EXTD=
EXTT0=
EXTT1=
EXTT2=
EXTT3=
EXTT4=
EXTT5=
EXTT6=
EXTT7=
EXTT8=
PLAYORDER=
